<?xml version="1.0" encoding="utf-8"?>
<!-- Generator: Adobe Illustrator 19.2.1, SVG Export Plug-In . SVG Version: 6.00 Build 0)  -->
<svg version="1.1" id="Layer_1" xmlns="http://www.w3.org/2000/svg" xmlns:xlink="http://www.w3.org/1999/xlink" x="0px" y="0px"
	 viewBox="0 0 24 45" style="enable-background:new 0 0 24 45;" xml:space="preserve">
<style type="text/css">
	.st0{fill:#FFFFFF;}
</style>
<title>down</title>
<desc>Created with Sketch.</desc>
<g id="Page-1">
	<g id="Full-Page" transform="translate(-374.000000, -5200.000000)">
		<g id="Section-4-_x28_Quote_x29_" transform="translate(-257.000000, 5098.000000)">
			
				<g id="down" transform="translate(642.890928, 124.714728) scale(-1, 1) rotate(-179.000000) translate(-642.890928, -124.714728) translate(630.390928, 102.214728)">
				<path id="Rectangle-13" class="st0" d="M4,22.4L23.7,2.7c0.6-0.6,0.6-1.5,0-2.1c-0.6-0.6-1.5-0.6-2.1,0L1.1,21.1
					c-0.4,0.4-0.5,0.9-0.4,1.4c-0.1,0.4,0.1,0.9,0.4,1.3l20.5,20.5c0.6,0.6,1.5,0.6,2.1,0c0.6-0.6,0.6-1.5,0-2.1L4,22.4z"/>
			</g>
		</g>
	</g>
</g>
</svg>
